<svg height="64" preserveAspectRatio="none" viewBox="0 0 64 64" width="64" xmlns="http://www.w3.org/2000/svg"><path d="m26.6928997 53.6953011-2.0590992-5.0049019s-12.9219007-3.8407974-15.0952301-9.1953011c-2.1733403-5.3544998.6855297-7.9154987.6855297-7.9154987l4.2323999-3.8412991s-3.5459003-6.5191002-4.5756397-10.3604012c-1.0293007-3.8412991 3.7734394-5.7030993 4.9179401-6.1683989 1.1435995-.4668007 5.9462996-2.5625 7.2040987-2.5625 1.2593002 0 3.5454006 1.1644993 3.5454006 1.1644993s4.5746995-3.3749994 6.0620995-3.1425995c1.4853001.2329998 5.8299999 3.3749995 6.7460003 3.2588.9160995-.1162004 2.9756012-1.6294003 4.3466988-.8139 1.3731003.8139 2.8574028 2.7938995 4.0020027 2.9096003 1.1445007.1157999 3.2030983.8140001 4.6884995 2.0948 1.4882011 1.2806997 1.6004982 7.5653992 2.402298 8.9632988.8008003 1.3970013 4.3446999 8.0318012-3.544899 26.073801 0 0-15.3232995 14.8613015-23.5580998 4.540001z" fill="#ffb743"/><g fill="#e08e0b"><path d="m49.6523018 26.9433994-.7773018-2.0366993-1.2588005.0795994-.982399 1.6060009c-.5116997.1327991-.4453011 1.2904987-.8633003 1.3901005l.4940987 2.0723c.0987015-.023901.2919998-.0576.5419998-.1030006l-.2176971 1.3383007c-4.9160004 2.0401001-8.4219017-3.6235008-8.4219017-3.6235008-.8330003-1.4165002-1.1669999-1.9165002-1.1669999-1.9165002-1.6660004-1-7.9165001-3.25-7.9165001-3.25-3.6567001.8148994-16.5 1.1665001-16.5 1.1665001l1.8690996 4.3041992 10.1538 8.4971008c6.6084003-.6973 14.3204002 4.7714996 14.3204002 4.7714996 1.0293007-2.6758003 4.4589005-3.2588005 7.547802-5.7011986 2.0243988-1.6026001 2.8652-4.5025005 3.2069969-6.3169003.714901-.2666016 1.3633003-.6094017 1.7354012-1.0547009.3690987-.4424.8027-2.1597004.8027-2.1597004-.4198989.2495005-1.4188995.5928003-2.567398.9365999z"/><path d="m29.8945007 14.0024004 6.8046989-3.3759003c.0000001 0-4.4033012-1.0483999-6.8046989 3.3759003z"/><path d="m39.7285004 17.3778992 3.8886986-1.8617992 2.4033012-2.4457998s-1.6035004-.2328997-4.5761986.9321003c-2.9736023 1.1635999-1.7158012 3.3754987-1.7158012 3.3754987z"/><path d="m50.6338005 48.0214996 3.8495979-11.4003983s-4.3700981 7.9149971-8.0830002 12.7684975c-9.2187996 2.2803001-20.6474991 1.4434013-20.6474991 1.4434013l2.9170017 5.5839882s7.1289005.9492226 10.3329983.25c2.1875-.4765587 7.0214996-4.4218903 9.8682022-6.875988l1.3798981-.6357002.2763023-.8174019c.344799-.3085976.559597-.5048981.559597-.5048981-.1483992.0653993-.3017005.1259995-.4530982.1884995z"/></g><path d="m19.5741997 37.6650009s1.6519012-.2666016 2.7949009-1.3153992c0 0 6.2910995-1.627903 8.4629002-1.860302 2.1718979-.2324982 5.1474991-2.9097004 4.8046989-4.7719994-.3437004-1.8628006-2.0596008-4.1904011-5.3759995-4.5405006-3.3169003-.3491993-7.8910999-.3486996-10.0639 0-2.1729012.3491001-6.6416006 3.3789005-6.6416006 3.3789005" fill="#ffb743"/><path d="m19.1445007 36.6211014s1.6220989 1.4530983 3.1083984.1288986c0 0 7.0596008-2.3905983 9.75-3.4892998 2.6895027-1.1030006 2.9258003-2.2635994 2.9248009-2.8451996-.0009003-.5820007-11.4375 3.2886009-11.4375 3.2886009s-3.7739009 1.9081994-4.3456993 2.9169999z" fill="#e08e0b"/><path d="m54.5586014 22.6420994c-.2411995-.4203987-.4639015-1.8505993-.6611023-3.112299-.4659004-2.9883003-.8769989-5.1734009-1.9306984-6.0801001-1.607399-1.3862-3.8096008-2.1665001-5.1758003-2.3046999-.3895988-.0395002-1.2041016-.7783003-1.7988014-1.3183002-.5928001-.5386-1.2070007-1.0957003-1.8407974-1.4717007-.4063034-.2416992-.875-.3642998-1.3916016-.3642998-.9423981 0-1.8828011.4048004-2.6376991.7300005-.3213005.1386995-.7217026.3109999-.7940025.3285999-.3827973-.0517005-1.7938996-.8656997-2.7264978-1.4043001-1.7871017-1.0312-3.0209999-1.7173-3.8579006-1.8481002-.0923004-.0146999-.1905002-.0224996-.295-.0224996-1.5912991 0-4.7182007 2.1044998-5.9941006 3.0131993-.8017998-.3705997-2.3687-1.0233993-3.4545994-1.0233993-1.0513 0-3.5200005.9447994-6.9038 2.3636999l-.7021999.2919998c-5.4384298 2.2031002-5.92134 5.1239996-5.3686104 7.1864996.8691406 3.2432003 3.4111099 8.2084999 4.3252106 9.9405003l-3.7182798 3.375c-.1357403.1216011-3.2944303 3.042902-.9145508 8.9051991 2.1054306 5.1875 12.9653301 8.8604012 15.2549305 9.5839996l1.9008007 4.6201515c.0317992.0771484.0742988.1494102.1264991.2148399 2.1068993 2.6406288 4.8276005 3.9794998 8.0868988 3.9794998 7.9854012 0 16.4209023-8.0917892 16.7754021-8.4364891.0830002-.080101.1483994-.1748009.1942978-.2803001 7.1172027-16.2754021 5.2490997-23.8184013 3.5020027-26.8667011zm-5.0479012 25.9955997c-1.0507011.9794998-8.6337013 7.8222618-15.4238014 7.8222618-2.6937981 0-4.8632984-1.0527306-6.6293983-3.2187614l-.8296013-2.017601c1.698801 1.1231003 3.8345013 2.3096008 5.2876015 2.3096008.0439987 0 .0873985-.0009995.1303978-.0028992l-.0917988-1.7636986c-1.3232002.0458984-4.7514992-2.1631012-6.7743988-3.767601l-.0064011.0078011c-.0874004-.0683022-.1816006-.1308022-.2910004-.1631012-3.4808998-1.0340996-12.876399-4.610302-14.5287991-8.6805992-1.8906107-4.6581993.3661995-6.841301.4609995-6.9297028l2.7802-2.5233994c1.3740997-.9599991 5.1371994-3.4037991 6.7388-3.6616993 2.0986004-.3363991 6.6005993-.3325005 9.831501.0064011 3.1357994.3309994 4.3671989 2.5585995 4.6005974 3.8223.0684013.3715-.1385994.9139996-.5673981 1.4881992-.8525009 1.1431007-2.3740005 2.1298981-3.462801 2.2461014-2.2109985.2363968-8.3310986 1.8163986-8.5903988 1.8837967l-.2133999.0547028-.1620998.1493988c-.9262009.8496017-2.3276005 1.0928001-2.341301 1.0946999l.1431007.8711014.1406002.8710976c.0746994-.0116997 1.7714996-.2958984 3.0767002-1.3837967 1.0863993-.2773019 6.2645991-1.5849 8.1342985-1.785103.3359013-.0360985.6884003-.1269989 1.0439014-.2490005 2.2851982 1.7080002 6.1035004 5.1601028 5.4227982 7.5566025l1.6993027.482399c.3387985-1.1923981.0926971-2.3778992-.4600029-3.4892006l.0741997.0371017c.0147018-.0283012 1.9258003-2.8604012 4.205101-3.9687996 2.4188995-.5156021 4.7022018-2.2275009 5.0039024-3.8325024.1973-1.0438995-.267601-3.8163986-.5469017-5.3109989 1.3194008-1.3448009 2.7490997-3.4043007 3.2724991-4.1826l-1.464798-.9853992c-1.3614006 2.0229988-3.2618027 4.3891983-3.9589996 4.6845989l.4686966 1.1049995c.3145027 1.7368011.6045036 3.778801.4951019 4.3618011-.1297989.6879978-1.847599 2.1844997-3.9541016 2.5058002-1.4569969.2276001-1.8554001-.4608994-2.2733994-1.1850014l-.1464996-.2486c-.3807983-.7451-2.0018997-7.4750996-1.6181984-9.1346989.2919998-1.2608013 2.7441978-4.5932999 4.0615997-6.3838005.6025009-.8194008 1.0790977-1.4667997 1.3153992-1.8446999l-1.4961014-.9365997c-.2020988.3217993-.6835976.9765997-1.2411995 1.7348995-2.1005974 2.8540001-4.014698 5.5400009-4.3603973 7.0326996-.3593025 1.5557003.4462967 5.7749004 1.1386986 8.3765011-.6933022.4214001-1.3466988.7143002-1.9541016.8715992.7129021-.976099 1.0116997-1.9457989.8526001-2.8071995-.4287987-2.3246994-2.4785995-4.8358994-6.0854988-5.2460995-.2558994-1.5981007-.647501-4.0249004-.8003006-4.8764-.1723995-.9693012.6152-3.2271004 1.6562996-4.2085009.8558998-.8072004 2.9188995-1.9790001 3.6416016-2.3627996l-.8282013-1.5595999c-.1142006.0605993-2.8197994 1.5019999-4.0243988 2.6371994-1.3896008 1.3101006-2.4712009 4.1845999-2.1836014 5.8037004.1714001.9566002.4683018 2.8412991.6885014 4.408699-2.2705002-.1464996-4.7518997-.158699-6.6694012-.035099-1.1952991-1.7784004-2.9102001-4.9580002-3.1396999-6.5200996-.164999-1.1181011 2.3672009-3.8227005 4.8080997-5.6870003l-1.0712986-1.4033003c-.9857997.7520002-5.882801 4.6411002-5.4838008 7.3476995.2089005 1.4179001 1.4868011 4.7441006 2.7993011 6.5039005-1.3423004.3036995-3.3267002 1.4062004-4.8911009 2.3730011-.8754997-1.6631012-3.3720999-6.5390015-4.1879997-9.5830002-.5356998-1.9995003.9198999-3.7129011 4.3989-5.1225004l.6493998-.2706003c3.5234003-1.4775 5.6167002-2.2264996 6.2212-2.2264996.7602997 0 2.3325005.6552992 3.1450005 1.0682993.2973995.1514006.6562996.1220999.9242992-.0760994 1.9433994-1.4336004 4.5517998-2.9810004 5.4008999-2.9810004h.0004997c.5741997.0903001 2.1191025.9818997 3.2481003 1.6333003 1.8143997 1.0468998 2.875 1.6396999 3.5820007 1.6396999.0370979 0 .1268997-.0059004.1640015-.0102997.4052963-.0517006.8456993-.2412004 1.3564987-.4614.8134995-.3491001 1.9081993-.7764006 2.4286995-.4693003.4804993.2852001 1.0273018.7812996 1.5556984 1.2607994.9453011.8589001 1.8388023 1.6699009 2.8076019 1.7681007.8828011.0893002 2.8027.6795998 4.2011986 1.8851995.6435013.5537004 1.0615005 3.2383003 1.3388023 5.0146999.2910004 1.8691006.4892998 3.0487995.8740005 3.7187004 1.2685967 2.2143995 3.4580995 9.086899-3.5166015 25.1171991zm-11.375-15.419899c.0577011.1455002.1114006.2685013.1553001.339798l.1298981.2217026c.2686005.464798.7129021 1.2157974 1.5566025 1.6865005-1.0996017.8603973-1.8955002 1.9042969-2.3613014 2.6191978-1.2588005-1.6123009-2.964798-2.952198-4.080101-3.7421989.0733032-.0479012.1445999-.1006012.2178001-.1514015.2842026.0517998.5723.0850029.8682022.0850029 1.0937004 0 2.2714997-.365303 3.5135994-1.0586014z" fill="#330600"/></svg>